<svg width="185" height="32" viewBox="0 0 185 32" fill="none" xmlns="http://www.w3.org/2000/svg">
<path d="M121.09 28.336C123.442 28.336 125.482 27.088 126.514 25.216L123.826 23.68C123.346 24.664 122.314 25.264 121.066 25.264C119.218 25.264 117.85 23.896 117.85 22C117.85 20.08 119.218 18.712 121.066 18.712C122.29 18.712 123.322 19.336 123.802 20.32L126.466 18.76C125.482 16.912 123.442 15.664 121.09 15.664C117.442 15.664 114.754 18.424 114.754 22C114.754 25.576 117.442 28.336 121.09 28.336ZM137.084 16V17.416C136.22 16.336 134.924 15.664 133.172 15.664C129.98 15.664 127.34 18.424 127.34 22C127.34 25.576 129.98 28.336 133.172 28.336C134.924 28.336 136.22 27.664 137.084 26.584V28H140.18V16H137.084ZM133.748 25.384C131.852 25.384 130.436 24.016 130.436 22C130.436 19.984 131.852 18.616 133.748 18.616C135.668 18.616 137.084 19.984 137.084 22C137.084 24.016 135.668 25.384 133.748 25.384ZM149.851 18.976V16H147.139V12.64L144.043 13.576V16H141.955V18.976H144.043V23.968C144.043 27.208 145.507 28.48 149.851 28V25.192C148.075 25.288 147.139 25.264 147.139 23.968V18.976H149.851ZM153.57 14.56C154.626 14.56 155.49 13.696 155.49 12.664C155.49 11.632 154.626 10.744 153.57 10.744C152.538 10.744 151.674 11.632 151.674 12.664C151.674 13.696 152.538 14.56 153.57 14.56V14.56ZM152.034 28H155.13V16H152.034V28ZM163.676 28.336C167.204 28.336 170.036 25.576 170.036 22C170.036 18.424 167.204 15.664 163.676 15.664C160.148 15.664 157.34 18.424 157.34 22C157.34 25.576 160.148 28.336 163.676 28.336ZM163.676 25.312C161.852 25.312 160.436 23.944 160.436 22C160.436 20.056 161.852 18.688 163.676 18.688C165.524 18.688 166.94 20.056 166.94 22C166.94 23.944 165.524 25.312 163.676 25.312ZM178.886 15.664C177.278 15.664 176.03 16.264 175.31 17.344V16H172.214V28H175.31V21.52C175.31 19.432 176.438 18.544 177.95 18.544C179.342 18.544 180.326 19.384 180.326 21.016V28H183.422V20.632C183.422 17.44 181.43 15.664 178.886 15.664V15.664Z" fill="#41B883"/>
<path d="M61.063 28H64.831L67.975 16.912L71.143 28H74.911L79.615 11.2H76.135L72.92 23.656L69.391 11.2H66.56L63.056 23.656L59.84 11.2H56.36L61.063 28ZM85.674 28.336C89.202 28.336 92.034 25.576 92.034 22C92.034 18.424 89.202 15.664 85.674 15.664C82.146 15.664 79.338 18.424 79.338 22C79.338 25.576 82.146 28.336 85.674 28.336ZM85.674 25.312C83.85 25.312 82.434 23.944 82.434 22C82.434 20.056 83.85 18.688 85.674 18.688C87.522 18.688 88.938 20.056 88.938 22C88.938 23.944 87.522 25.312 85.674 25.312ZM97.308 18.064V16H94.212V28H97.308V22.264C97.308 19.744 99.348 19.024 100.956 19.216V15.76C99.444 15.76 97.932 16.432 97.308 18.064ZM113.831 28L108.863 21.928L113.687 16H109.991L105.863 21.28V11.2H102.767V28H105.863V22.552L110.231 28H113.831V28Z" fill="#2D3748"/>
<path fill-rule="evenodd" clip-rule="evenodd" d="M43.911 12.604L36.213 8.16V28.805H45.213V30.805H1.213V28.805H5.213V16.085L1.485 17.018L1 15.078L22.09 9.805H25.212C24.8676 10.6223 24.6388 11.4836 24.532 12.364L24.049 16.339L29.213 13.357V28.805H34.213V8.161L26.517 12.605C26.741 10.7403 27.6563 9.02753 29.082 7.805H24.962C25.7254 6.78506 26.7364 5.97675 27.8994 5.45652C29.0624 4.93628 30.3388 4.72133 31.608 4.832L26.017 1.604C27.0875 1.14574 28.2502 0.943463 29.4125 1.01325C30.5749 1.08303 31.705 1.42295 32.713 2.006C33.752 2.606 34.593 3.416 35.213 4.353C35.8528 3.38718 36.7088 2.58363 37.713 2.006C38.7213 1.42278 39.8517 1.08277 41.0145 1.01298C42.1772 0.943199 43.3402 1.14556 44.411 1.604L38.818 4.832C40.0872 4.72124 41.3637 4.93614 42.5267 5.45638C43.6896 5.97662 44.7006 6.78499 45.464 7.805H41.344C42.7707 9.02695 43.6868 10.7399 43.911 12.605V12.604ZM25.213 28.805V18.805H19.213V28.805H25.213ZM14.213 20.805C14.213 21.3354 14.0023 21.8441 13.6272 22.2192C13.2521 22.5943 12.7434 22.805 12.213 22.805C11.6826 22.805 11.1739 22.5943 10.7988 22.2192C10.4237 21.8441 10.213 21.3354 10.213 20.805C10.213 20.2746 10.4237 19.7659 10.7988 19.3908C11.1739 19.0157 11.6826 18.805 12.213 18.805C12.7434 18.805 13.2521 19.0157 13.6272 19.3908C14.0023 19.7659 14.213 20.2746 14.213 20.805V20.805Z" fill="#41B883"/>
</svg>
